<svg xmlns="http://www.w3.org/2000/svg" viewBox="0 0 24 24"><g data-name="Layer 2"><g data-name="Layer 3"><rect width="24" height="24" fill="none"/><path fill="#fff" d="M1,12C1,4,4,1,12,1S23,4,23,12,20,23,12,23,1,20,1,12"/><path fill="#4285f4" d="M12,14.52A2.54,2.54,0,0,0,14.57,12V6.12a2.58,2.58,0,0,0-5.15,0V12A2.55,2.55,0,0,0,12,14.52Z"/><path fill="#34a853" d="M11.15,17.81h1.71V20.4H11.15Z"/><path fill="#f4b400" d="M7.72,12H6a5.81,5.81,0,0,0,1.76,4.16L9,15A4.16,4.16,0,0,1,7.72,12Z"/><path fill="#ea4335" d="M12,16.2A4.33,4.33,0,0,1,9,15L7.76,16.15A6,6,0,0,0,12,17.88,5.93,5.93,0,0,0,18,12H16.28A4.24,4.24,0,0,1,12,16.2Z"/></g></g></svg>